<?xml version="1.0" encoding="UTF-8" standalone="no"?>
<!DOCTYPE svg PUBLIC "-//W3C//DTD SVG 1.1//EN"
 "http://www.w3.org/Graphics/SVG/1.1/DTD/svg11.dtd">
<!-- Generated by graphviz version 2.40.1 (20161225.0304)
 -->
<!-- Title: finite_state_machine Pages: 1 -->
<svg width="576pt" height="131pt"
 viewBox="0.00 0.00 576.00 131.04" xmlns="http://www.w3.org/2000/svg" xmlns:xlink="http://www.w3.org/1999/xlink">
<g id="graph0" class="graph" transform="scale(.5957 .5957) rotate(0) translate(4 216)">
<title>finite_state_machine</title>
<polygon fill="#ffffff" stroke="transparent" points="-4,4 -4,-216 963,-216 963,4 -4,4"/>
<!-- 3 -->
<g id="node1" class="node">
<title>3</title>
<ellipse fill="#ffffff" stroke="#000000" cx="834" cy="-113" rx="18" ry="18"/>
<ellipse fill="none" stroke="#000000" cx="834" cy="-113" rx="22" ry="22"/>
<text text-anchor="middle" x="834" y="-109.3" font-family="Times,serif" font-size="14.00" fill="#000000">3</text>
</g>
<!-- 8 -->
<g id="node5" class="node">
<title>8</title>
<ellipse fill="#ffffff" stroke="#000000" cx="937" cy="-113" rx="18" ry="18"/>
<ellipse fill="none" stroke="#000000" cx="937" cy="-113" rx="22" ry="22"/>
<text text-anchor="middle" x="937" y="-109.3" font-family="Times,serif" font-size="14.00" fill="#000000">8</text>
</g>
<!-- 3&#45;&gt;8 -->
<g id="edge9" class="edge">
<title>3&#45;&gt;8</title>
<path fill="none" stroke="#000000" d="M856.0961,-113C870.2162,-113 888.7712,-113 904.5494,-113"/>
<polygon fill="#000000" stroke="#000000" points="904.9405,-116.5001 914.9405,-113 904.9404,-109.5001 904.9405,-116.5001"/>
<text text-anchor="middle" x="885.5" y="-116.8" font-family="Times,serif" font-size="14.00" fill="#000000">#, +</text>
</g>
<!-- 4 -->
<g id="node2" class="node">
<title>4</title>
<ellipse fill="#ffffff" stroke="#000000" cx="361" cy="-72" rx="18" ry="18"/>
<ellipse fill="none" stroke="#000000" cx="361" cy="-72" rx="22" ry="22"/>
<text text-anchor="middle" x="361" y="-68.3" font-family="Times,serif" font-size="14.00" fill="#000000">4</text>
</g>
<!-- 5 -->
<g id="node3" class="node">
<title>5</title>
<ellipse fill="#ffffff" stroke="#000000" cx="467" cy="-115" rx="18" ry="18"/>
<ellipse fill="none" stroke="#000000" cx="467" cy="-115" rx="22" ry="22"/>
<text text-anchor="middle" x="467" y="-111.3" font-family="Times,serif" font-size="14.00" fill="#000000">5</text>
</g>
<!-- 4&#45;&gt;5 -->
<g id="edge10" class="edge">
<title>4&#45;&gt;5</title>
<path fill="none" stroke="#000000" d="M381.4379,-80.2908C397.1737,-86.6742 419.162,-95.594 436.9076,-102.7927"/>
<polygon fill="#000000" stroke="#000000" points="435.6809,-106.0721 446.2632,-106.5879 438.3123,-99.5855 435.6809,-106.0721"/>
<text text-anchor="middle" x="414" y="-101.8" font-family="Times,serif" font-size="14.00" fill="#000000">1 &#45; 8</text>
</g>
<!-- 6 -->
<g id="node11" class="node">
<title>6</title>
<ellipse fill="#ffffff" stroke="#000000" cx="568" cy="-62" rx="18" ry="18"/>
<text text-anchor="middle" x="568" y="-58.3" font-family="Times,serif" font-size="14.00" fill="#000000">6</text>
</g>
<!-- 4&#45;&gt;6 -->
<g id="edge11" class="edge">
<title>4&#45;&gt;6</title>
<path fill="none" stroke="#000000" d="M383.1526,-70.9298C421.0511,-69.099 498.2603,-65.3691 539.8934,-63.3578"/>
<polygon fill="#000000" stroke="#000000" points="540.0882,-66.8526 549.9076,-62.874 539.7504,-59.8607 540.0882,-66.8526"/>
<text text-anchor="middle" x="467" y="-70.8" font-family="Times,serif" font-size="14.00" fill="#000000">a &#45; h</text>
</g>
<!-- 5&#45;&gt;3 -->
<g id="edge12" class="edge">
<title>5&#45;&gt;3</title>
<path fill="none" stroke="#000000" d="M489.131,-114.8794C551.4638,-114.5397 728.6943,-113.5739 801.8309,-113.1753"/>
<polygon fill="#000000" stroke="#000000" points="801.8594,-116.6753 811.8402,-113.1208 801.8212,-109.6754 801.8594,-116.6753"/>
<text text-anchor="middle" x="631.5" y="-117.8" font-family="Times,serif" font-size="14.00" fill="#000000">D, V, S, J</text>
</g>
<!-- 5&#45;&gt;8 -->
<g id="edge14" class="edge">
<title>5&#45;&gt;8</title>
<path fill="none" stroke="#000000" d="M483.9756,-129.4621C503.091,-144.229 535.7165,-165 568,-165 568,-165 568,-165 834,-165 863.1405,-165 892.4225,-148.2086 912.2754,-133.7094"/>
<polygon fill="#000000" stroke="#000000" points="914.6088,-136.3316 920.4385,-127.4849 910.3643,-130.7652 914.6088,-136.3316"/>
<text text-anchor="middle" x="699" y="-168.8" font-family="Times,serif" font-size="14.00" fill="#000000">#, +</text>
</g>
<!-- 5&#45;&gt;6 -->
<g id="edge13" class="edge">
<title>5&#45;&gt;6</title>
<path fill="none" stroke="#000000" d="M485.4276,-102.7932C492.1113,-98.5511 499.7917,-93.8863 507,-90 518.1512,-83.988 530.8327,-78.0324 541.7334,-73.1697"/>
<polygon fill="#000000" stroke="#000000" points="543.3962,-76.2623 551.1487,-69.0408 540.585,-69.8516 543.3962,-76.2623"/>
<text text-anchor="middle" x="519.5" y="-93.8" font-family="Times,serif" font-size="14.00" fill="#000000">a &#45; h</text>
</g>
<!-- 7 -->
<g id="node4" class="node">
<title>7</title>
<ellipse fill="#ffffff" stroke="#000000" cx="699" cy="-62" rx="18" ry="18"/>
<ellipse fill="none" stroke="#000000" cx="699" cy="-62" rx="22" ry="22"/>
<text text-anchor="middle" x="699" y="-58.3" font-family="Times,serif" font-size="14.00" fill="#000000">7</text>
</g>
<!-- 7&#45;&gt;3 -->
<g id="edge16" class="edge">
<title>7&#45;&gt;3</title>
<path fill="none" stroke="#000000" d="M720.6317,-66.833C740.2213,-71.5683 769.6545,-79.5854 794,-90 798.1727,-91.785 802.4577,-93.9065 806.6008,-96.128"/>
<polygon fill="#000000" stroke="#000000" points="804.9159,-99.196 815.3456,-101.0595 808.3544,-93.0987 804.9159,-99.196"/>
<text text-anchor="middle" x="766.5" y="-93.8" font-family="Times,serif" font-size="14.00" fill="#000000">D, V, S, J</text>
</g>
<!-- 7&#45;&gt;8 -->
<g id="edge17" class="edge">
<title>7&#45;&gt;8</title>
<path fill="none" stroke="#000000" d="M721.0893,-59.4253C751.9451,-56.5591 809.4022,-53.8948 856,-67 875.7811,-72.5633 895.8804,-83.9362 911.109,-93.9811"/>
<polygon fill="#000000" stroke="#000000" points="909.2402,-96.9431 919.4733,-99.688 913.1854,-91.1608 909.2402,-96.9431"/>
<text text-anchor="middle" x="834" y="-70.8" font-family="Times,serif" font-size="14.00" fill="#000000">#, +</text>
</g>
<!-- * -->
<g id="node6" class="node">
<title>*</title>
<ellipse fill="#ffffff" stroke="#000000" cx="18" cy="-161" rx="18" ry="18"/>
<text text-anchor="middle" x="18" y="-157.3" font-family="Times,serif" font-size="14.00" fill="#000000">*</text>
</g>
<!-- 9 -->
<g id="node7" class="node">
<title>9</title>
<ellipse fill="#ffffff" stroke="#000000" cx="163" cy="-161" rx="18" ry="18"/>
<text text-anchor="middle" x="163" y="-157.3" font-family="Times,serif" font-size="14.00" fill="#000000">9</text>
</g>
<!-- *&#45;&gt;9 -->
<g id="edge1" class="edge">
<title>*&#45;&gt;9</title>
<path fill="none" stroke="#000000" d="M36.0712,-161C60.7094,-161 105.1111,-161 134.3223,-161"/>
<polygon fill="#000000" stroke="#000000" points="134.7011,-164.5001 144.7011,-161 134.7011,-157.5001 134.7011,-164.5001"/>
<text text-anchor="middle" x="90.5" y="-164.8" font-family="Times,serif" font-size="14.00" fill="#000000">other</text>
</g>
<!-- 9&#45;&gt;9 -->
<g id="edge2" class="edge">
<title>9&#45;&gt;9</title>
<path fill="none" stroke="#000000" d="M154.635,-177.2903C152.6179,-187.3892 155.4063,-197 163,-197 167.8647,-197 170.7573,-193.0557 171.6778,-187.5656"/>
<polygon fill="#000000" stroke="#000000" points="175.1677,-187.1791 171.365,-177.2903 168.171,-187.3922 175.1677,-187.1791"/>
<text text-anchor="middle" x="163" y="-200.8" font-family="Times,serif" font-size="14.00" fill="#000000">other</text>
</g>
<!-- 0 -->
<g id="node8" class="node">
<title>0</title>
<ellipse fill="#ffffff" stroke="#000000" cx="18" cy="-65" rx="18" ry="18"/>
<text text-anchor="middle" x="18" y="-61.3" font-family="Times,serif" font-size="14.00" fill="#000000">0</text>
</g>
<!-- 0&#45;&gt;4 -->
<g id="edge5" class="edge">
<title>0&#45;&gt;4</title>
<path fill="none" stroke="#000000" d="M33.1942,-74.7436C39.4075,-78.2604 46.8146,-81.8819 54,-84 149.5018,-112.1513 178.6181,-93.0277 278,-87 297.1224,-85.8402 302.1539,-87.4402 321,-84 324.0402,-83.445 327.1769,-82.7422 330.2937,-81.9561"/>
<polygon fill="#000000" stroke="#000000" points="331.3457,-85.2964 340.0393,-79.2407 329.4668,-78.5532 331.3457,-85.2964"/>
<text text-anchor="middle" x="211.5" y="-97.8" font-family="Times,serif" font-size="14.00" fill="#000000">a &#45; h</text>
</g>
<!-- 1 -->
<g id="node9" class="node">
<title>1</title>
<ellipse fill="#ffffff" stroke="#000000" cx="163" cy="-65" rx="18" ry="18"/>
<text text-anchor="middle" x="163" y="-61.3" font-family="Times,serif" font-size="14.00" fill="#000000">1</text>
</g>
<!-- 0&#45;&gt;1 -->
<g id="edge3" class="edge">
<title>0&#45;&gt;1</title>
<path fill="none" stroke="#000000" d="M36.0712,-65C60.7094,-65 105.1111,-65 134.3223,-65"/>
<polygon fill="#000000" stroke="#000000" points="134.7011,-68.5001 144.7011,-65 134.7011,-61.5001 134.7011,-68.5001"/>
<text text-anchor="middle" x="90.5" y="-68.8" font-family="Times,serif" font-size="14.00" fill="#000000">K, D, V, S, J</text>
</g>
<!-- 2 -->
<g id="node10" class="node">
<title>2</title>
<ellipse fill="#ffffff" stroke="#000000" cx="260" cy="-18" rx="18" ry="18"/>
<text text-anchor="middle" x="260" y="-14.3" font-family="Times,serif" font-size="14.00" fill="#000000">2</text>
</g>
<!-- 0&#45;&gt;2 -->
<g id="edge4" class="edge">
<title>0&#45;&gt;2</title>
<path fill="none" stroke="#000000" d="M34.8619,-57.756C58.8243,-47.8502 104.3414,-30.4582 145,-23 174.1863,-17.6462 208.2038,-16.8209 231.6293,-17.072"/>
<polygon fill="#000000" stroke="#000000" points="231.8388,-20.5763 241.9008,-17.2586 231.966,-13.5774 231.8388,-20.5763"/>
<text text-anchor="middle" x="163" y="-26.8" font-family="Times,serif" font-size="14.00" fill="#000000">x</text>
</g>
<!-- 1&#45;&gt;4 -->
<g id="edge7" class="edge">
<title>1&#45;&gt;4</title>
<path fill="none" stroke="#000000" d="M181.2725,-65.646C214.8268,-66.8323 286.664,-69.372 328.647,-70.8562"/>
<polygon fill="#000000" stroke="#000000" points="328.7697,-74.3626 338.8871,-71.2182 329.017,-67.367 328.7697,-74.3626"/>
<text text-anchor="middle" x="260" y="-71.8" font-family="Times,serif" font-size="14.00" fill="#000000">a &#45; h</text>
</g>
<!-- 1&#45;&gt;2 -->
<g id="edge6" class="edge">
<title>1&#45;&gt;2</title>
<path fill="none" stroke="#000000" d="M178.1081,-55.0263C184.4327,-51.0478 191.9427,-46.5738 199,-43 210.0227,-37.4181 222.5963,-32.0983 233.4527,-27.8121"/>
<polygon fill="#000000" stroke="#000000" points="234.7761,-31.0531 242.8463,-24.1886 232.2567,-24.5222 234.7761,-31.0531"/>
<text text-anchor="middle" x="211.5" y="-46.8" font-family="Times,serif" font-size="14.00" fill="#000000">x</text>
</g>
<!-- 2&#45;&gt;4 -->
<g id="edge8" class="edge">
<title>2&#45;&gt;4</title>
<path fill="none" stroke="#000000" d="M277.0691,-23.7532C289.5859,-28.2655 306.8012,-35.0926 321,-43 325.871,-45.7127 330.8471,-48.9174 335.561,-52.1894"/>
<polygon fill="#000000" stroke="#000000" points="333.5285,-55.0389 343.6835,-58.06 337.629,-49.3656 333.5285,-55.0389"/>
<text text-anchor="middle" x="308.5" y="-46.8" font-family="Times,serif" font-size="14.00" fill="#000000">a &#45; h</text>
</g>
<!-- 6&#45;&gt;7 -->
<g id="edge15" class="edge">
<title>6&#45;&gt;7</title>
<path fill="none" stroke="#000000" d="M586.215,-62C606.8841,-62 641.0043,-62 666.3127,-62"/>
<polygon fill="#000000" stroke="#000000" points="666.5548,-65.5001 676.5548,-62 666.5547,-58.5001 666.5548,-65.5001"/>
<text text-anchor="middle" x="631.5" y="-65.8" font-family="Times,serif" font-size="14.00" fill="#000000">1 &#45; 8</text>
</g>
</g>
</svg>
