<?xml version="1.0" encoding="UTF-8" standalone="no"?>
<!-- Created with Inkscape (http://www.inkscape.org/) -->

<svg
   xmlns:dc="http://purl.org/dc/elements/1.1/"
   xmlns:cc="http://creativecommons.org/ns#"
   xmlns:rdf="http://www.w3.org/1999/02/22-rdf-syntax-ns#"
   xmlns:svg="http://www.w3.org/2000/svg"
   xmlns="http://www.w3.org/2000/svg"
   xmlns:sodipodi="http://sodipodi.sourceforge.net/DTD/sodipodi-0.dtd"
   xmlns:inkscape="http://www.inkscape.org/namespaces/inkscape"
   width="100"
   height="100"
   viewBox="0 0 26.458332 26.458334"
   version="1.1"
   id="svg8"
   sodipodi:docname="ChessPieces.svg"
   inkscape:version="0.92.3 (2405546, 2018-03-11)"
   inkscape:export-filename="/media/marek/OS/Users/marek/Desktop/icp2018-19/src/GuiGame/img/king_white.png"
   inkscape:export-xdpi="96"
   inkscape:export-ydpi="96">
  <defs
     id="defs2" />
  <sodipodi:namedview
     id="base"
     pagecolor="#ffffff"
     bordercolor="#666666"
     borderopacity="1.0"
     inkscape:pageopacity="0.0"
     inkscape:pageshadow="2"
     inkscape:zoom="4"
     inkscape:cx="-5.019062"
     inkscape:cy="-66.209748"
     inkscape:document-units="mm"
     inkscape:current-layer="layer1"
     showgrid="false"
     units="px"
     inkscape:window-width="1920"
     inkscape:window-height="1025"
     inkscape:window-x="0"
     inkscape:window-y="27"
     inkscape:window-maximized="1" />
  <metadata
     id="metadata5">
    <rdf:RDF>
      <cc:Work
         rdf:about="">
        <dc:format>image/svg+xml</dc:format>
        <dc:type
           rdf:resource="http://purl.org/dc/dcmitype/StillImage" />
        <dc:title />
      </cc:Work>
    </rdf:RDF>
  </metadata>
  <g
     inkscape:label="Layer 1"
     inkscape:groupmode="layer"
     id="layer1"
     transform="translate(0,-270.54165)">
    <g
       id="g945"
       transform="matrix(2,0,0,2,-19.908145,-262.90281)"
       style="stroke:none;stroke-width:0.06614583;stroke-miterlimit:4;stroke-dasharray:none;stroke-opacity:1">
      <circle
         r="0.1984375"
         cy="284.61469"
         cx="2.6118851"
         id="path831"
         style="fill:#000000;fill-opacity:1;stroke:none;stroke-width:0.06614583;stroke-miterlimit:4;stroke-dasharray:none;stroke-opacity:1" />
      <path
         inkscape:connector-curvature="0"
         d="m 3.1410517,285.27609 v 0.39688 H 2.0827184 v -0.39688 z m -0.7276044,-0.33072 h 0.396875 v 1.05834 h -0.396875 z"
         style="fill:#000000;fill-opacity:1;stroke:none;stroke-width:0.06614583;stroke-miterlimit:4;stroke-dasharray:none;stroke-opacity:1"
         id="rect897" />
      <path
         inkscape:connector-curvature="0"
         d="M 4.074433,286.13602 H 2.611885 v 2.64583 h 0.852611 c 0.09235,-1.33146 0.09477,-1.17325 0.609937,-2.64583 z m -2.925096,0 h 1.462548 v 2.64583 l -0.852611,3.4e-4 c -0.09235,-1.33146 -0.09477,-1.17359 -0.609937,-2.64617 z"
         style="fill:#000000;fill-opacity:1;stroke:none;stroke-width:0.06614583;stroke-miterlimit:4;stroke-dasharray:none;stroke-opacity:1"
         id="path899"
         sodipodi:nodetypes="cccccccccc" />
      <path
         sodipodi:nodetypes="cccccccccc"
         inkscape:connector-curvature="0"
         d="m 3.530142,288.96719 -0.918257,-1.3e-4 v 6.4823 l 1.741281,5e-5 z m -1.836514,0 h 0.918257 v 6.48215 H 0.87060405 Z"
         style="fill:#000000;fill-opacity:1;stroke:none;stroke-width:0.06614583;stroke-miterlimit:4;stroke-dasharray:none;stroke-opacity:1"
         id="path901" />
      <path
         inkscape:connector-curvature="0"
         d="m 4.386575,295.66103 h -1.77469 v 0.52916 h 2.008551 l -0.0031,-0.21632 z m -3.54937995,0 H 2.611885 v 0.52916 H 0.60333405 l 0.0031,-0.21632 z"
         style="fill:#000000;fill-opacity:1;stroke:none;stroke-width:0.06614583;stroke-miterlimit:4;stroke-dasharray:none;stroke-opacity:1"
         id="path903" />
    </g>
    <g
       id="g938"
       transform="matrix(2.1,0,0,2.1,-22.662347,-291.73642)">
      <path
         inkscape:connector-curvature="0"
         id="circle911"
         d="m 7.4528447,285.7777 a 0.79333655,0.79333655 0 0 0 -0.7545535,0.54984 c 0.022869,0.0182 0.046726,0.0346 0.06873,0.055 l 0.3141927,-0.29652 0.3716312,0.32008 0.371631,-0.32008 0.3141928,0.29652 c 0.021831,-0.0202 0.045557,-0.0364 0.068238,-0.0545 a 0.79333655,0.79333655 0 0 0 -0.7540624,-0.55032 z"
         style="fill:#000000;fill-opacity:1;stroke:none;stroke-width:1.78376818;stroke-miterlimit:4;stroke-dasharray:none;stroke-opacity:1" />
      <path
         sodipodi:nodetypes="ccccccccccc"
         inkscape:connector-curvature="0"
         id="path915"
         d="m 6.0635237,286.26829 c 0.4894087,1.39895 0.4915603,1.23129 0.5792929,2.49618 h 0.810028 0.810028 c 0.087732,-1.26489 0.089884,-1.09723 0.579293,-2.49618 -0.3410748,0.0554 -0.5313014,0.14673 -0.7034971,0.30633 l -0.3141927,-0.29651 -0.3716312,0.32008 -0.3716311,-0.32008 -0.3141927,0.29651 c -0.1721957,-0.1596 -0.3624226,-0.25095 -0.7034971,-0.30633 z"
         style="fill:#000000;fill-opacity:1;stroke:none;stroke-width:0.20892321;stroke-miterlimit:4;stroke-dasharray:none;stroke-opacity:1" />
      <path
         id="path917"
         style="fill:#000000;fill-opacity:1;stroke:none;stroke-width:0.27212727;stroke-miterlimit:4;stroke-dasharray:none;stroke-opacity:1"
         d="m 8.3251485,288.94066 -0.8723442,-1.2e-4 v 6.17363 l 1.654217,-3e-5 z m -1.7446883,0 h 0.8723441 v 6.17351 H 5.7985874 Z"
         inkscape:connector-curvature="0"
         sodipodi:nodetypes="cccccccccc" />
      <path
         id="path919"
         style="fill:#000000;fill-opacity:1;stroke:none;stroke-width:0.23427857;stroke-miterlimit:4;stroke-dasharray:none;stroke-opacity:1"
         d="M 9.1387598,295.31701 H 7.4528043 v 0.5027 h 1.9081235 l -0.00295,-0.2055 z m -3.3719109,0 h 1.6859554 v 0.5027 H 5.5446809 l 0.00294,-0.2055 z"
         inkscape:connector-curvature="0" />
      <path
         inkscape:connector-curvature="0"
         id="rect927"
         d="m 7.2898571,285.22934 0.063827,0.42268 h 0.099177 0.099176 l 0.063827,-0.42268 H 7.4528604 Z"
         style="fill:#000000;fill-opacity:1;stroke:none;stroke-width:0.47502288;stroke-miterlimit:4;stroke-dasharray:none;stroke-opacity:1" />
    </g>
    <g
       transform="matrix(2.205,0,0,2.205,-15.453138,-322.23569)"
       id="g962">
      <path
         style="fill:#000000;fill-opacity:1;stroke:none;stroke-width:0.19847704;stroke-miterlimit:4;stroke-dasharray:none;stroke-opacity:1"
         d="m 7.2385038,286.64767 c -0.9417329,0.21494 -1.0860775,1.09737 -0.5551878,2.19749 h 0.7695266 0.7695266 c 0.5255078,-1.5364 -0.041599,-2.72571 -0.8014375,-2.98134 v 2.20234 H 7.2385034 Z"
         id="path949"
         inkscape:connector-curvature="0"
         sodipodi:nodetypes="cccccccc" />
      <path
         sodipodi:nodetypes="cccccccccc"
         inkscape:connector-curvature="0"
         d="m 8.2815313,289.01296 -0.828727,-1.2e-4 v 5.87963 h 1.5715062 z m -1.6574539,0 h 0.8287269 v 5.87951 H 5.8812982 Z"
         style="fill:#000000;fill-opacity:1;stroke:none;stroke-width:0.2585209;stroke-miterlimit:4;stroke-dasharray:none;stroke-opacity:1"
         id="path951" />
      <path
         inkscape:connector-curvature="0"
         d="M 9.054462,295.08687 H 7.4528043 v 0.47756 h 1.8127173 l -0.0028,-0.19522 z m -3.2033153,0 h 1.6016576 v 0.47756 H 5.6400871 l 0.00279,-0.19522 z"
         style="fill:#000000;fill-opacity:1;stroke:none;stroke-width:0.22256465;stroke-miterlimit:4;stroke-dasharray:none;stroke-opacity:1"
         id="path953" />
    </g>
    <g
       id="g970"
       transform="matrix(2.205,0,0,2.205,-1.3247773,-354.05889)">
      <path
         id="path966"
         style="fill:#000000;fill-opacity:1;stroke:none;stroke-width:0.2585209;stroke-miterlimit:4;stroke-dasharray:none;stroke-opacity:1"
         d="m 4.3834755,303.03675 -1.1482411,0.2442 -0.446372,-1.08165 1.3716546,-1.14903 c 0.6386209,-0.41989 0.7796238,-0.74161 1.8587703,-0.36083 1.4514548,0.76834 1.255739,2.2348 1.4657648,3.49336 0.190865,1.00912 0.2968519,1.31382 0.5270929,3.21522 l -0.8885729,0.99759 C 6.6143932,307.4782 6.5998917,305.93056 6.2943724,305.21328 l -0.1750626,0.10568 c 0.372929,1.32567 0.2374399,2.04799 0.9059163,3.32062 l -0.6818966,0.67698 -1.7456675,-4e-5 c -1.2665568,-2.08677 -1.4064569,-3.01251 -0.1423422,-4.91837 0.2961824,-0.44655 0.16121,-0.72598 -0.071844,-1.36144 z"
         inkscape:connector-curvature="0"
         sodipodi:nodetypes="cccccccccccccscc" />
      <path
         id="path968"
         style="fill:#000000;fill-opacity:1;stroke:none;stroke-width:0.22256465;stroke-miterlimit:4;stroke-dasharray:none;stroke-opacity:1"
         d="M 6.975699,309.51094 H 5.3740413 v 0.47756 h 1.8127173 l -0.0028,-0.19522 z m -3.2033153,0 h 1.6016576 v 0.47756 H 3.5613241 l 0.00279,-0.19522 z"
         inkscape:connector-curvature="0" />
    </g>
    <g
       id="g988"
       transform="matrix(2.205,0,0,2.205,4.3836033,-322.07892)">
      <path
         sodipodi:nodetypes="ccccccccccccccccccc"
         inkscape:connector-curvature="0"
         id="path974"
         d="m 6.1732506,286.70388 -0.00445,1.20716 0.4919175,0.50281 4.946e-4,0.43131 h 0.7994279 0.7994279 l 4.944e-4,-0.43131 0.4919175,-0.50281 -0.00445,-1.20716 H 8.0730851 l -0.016809,0.53175 H 7.8654152 v -0.53175 H 7.4606414 l -0.3949148,0.008 v 0.53175 l -0.2033141,-0.008 -0.016809,-0.53175 z"
         style="fill:#000000;fill-opacity:1;stroke:none;stroke-width:0.1941327;stroke-miterlimit:4;stroke-dasharray:none;stroke-opacity:1" />
      <path
         id="path976"
         style="fill:#000000;fill-opacity:1;stroke:none;stroke-width:0.2585209;stroke-miterlimit:4;stroke-dasharray:none;stroke-opacity:1"
         d="m 8.2815313,289.01284 h -0.828727 v 5.87956 l 1.5715062,8e-5 z m -1.6574539,1.2e-4 0.8287269,-1.2e-4 v 5.87956 l -1.5715061,6e-5 z"
         inkscape:connector-curvature="0"
         sodipodi:nodetypes="cccccccccc" />
      <path
         id="path978"
         style="fill:#000000;fill-opacity:1;stroke:none;stroke-width:0.22256465;stroke-miterlimit:4;stroke-dasharray:none;stroke-opacity:1"
         d="M 9.054462,295.08687 H 7.4528043 v 0.47756 h 1.8127173 l -0.0028,-0.19522 z m -3.2033153,0 h 1.6016576 v 0.47756 H 5.6400871 l 0.00279,-0.19522 z"
         inkscape:connector-curvature="0" />
    </g>
    <g
       id="g996"
       transform="matrix(2.4255,0,0,2.4255,12.732632,-386.25399)"
       inkscape:export-filename="/media/marek/OS/Users/marek/Desktop/icp2018-19/src/GuiGame/img/pawn_white.png"
       inkscape:export-xdpi="96"
       inkscape:export-ydpi="96">
      <g
         id="g1006">
        <path
           id="path992"
           style="fill:#000000;fill-opacity:1;stroke:none;stroke-width:0.23266882;stroke-miterlimit:4;stroke-dasharray:none;stroke-opacity:1"
           d="M 8.1986586,289.16849 H 7.4528043 v 5.34502 h 1.4143556 z m -1.4917085,0 h 0.7458542 v 5.34502 l -1.4143555,6e-5 z"
           inkscape:connector-curvature="0"
           sodipodi:nodetypes="cccccccccc" />
        <path
           id="path994"
           style="fill:#000000;fill-opacity:1;stroke:none;stroke-width:0.20030819;stroke-miterlimit:4;stroke-dasharray:none;stroke-opacity:1"
           d="M 8.8942962,294.69458 H 7.4528043 v 0.4298 h 1.6314456 l -0.00252,-0.1757 z m -2.8829837,0 h 1.4414918 v 0.4298 H 5.8213588 l 0.00251,-0.1757 z"
           inkscape:connector-curvature="0" />
        <path
           inkscape:connector-curvature="0"
           id="path998"
           d="m 7.4511093,287.20349 c -0.5937448,-9e-5 -1.0751523,0.47799 -1.0752832,1.06784 -3.76e-5,0.31412 0.1391162,0.54165 0.3804418,0.74462 h 0.6967019 0.6911204 c 0.2418459,-0.2027 0.3815281,-0.43027 0.3818379,-0.74462 -1.308e-4,-0.58967 -0.4812554,-1.06767 -1.0748188,-1.06784 z"
           style="fill:#000000;fill-opacity:1;stroke:none;stroke-width:0.44999999;stroke-miterlimit:4;stroke-dasharray:none;stroke-opacity:1"
           sodipodi:nodetypes="ccccccc" />
      </g>
    </g>
  </g>
</svg>
